<svg width="184" height="169" viewBox="0 0 184 169" fill="none" xmlns="http://www.w3.org/2000/svg">
<path d="M137.703 40.2123L44.6177 41.9073C31.4355 42.1513 20.8356 53.1335 21.0796 66.3158L21.7914 105.306C22.0354 118.488 33.0176 129.088 46.1999 128.844L68.7156 128.433C79.5584 138.298 85.9824 146.701 89.6919 146.629C93.3069 146.565 100.472 136.603 109.971 127.678L139.295 127.145C152.477 126.901 163.077 115.919 162.833 102.736L162.121 63.7466C161.877 50.5643 150.895 39.9644 137.713 40.2084L137.703 40.2123Z" fill="#FCFCFC"/>
<path d="M120.254 104.156C129.808 88.4409 124.814 67.9565 109.099 58.4025C93.3842 48.8486 72.8998 53.8429 63.3459 69.5576C53.7919 85.2724 58.7862 105.757 74.5009 115.311C90.2157 124.865 110.7 119.87 120.254 104.156Z" fill="url(#paint0_linear_5_5188)"/>
<path d="M106.474 92.2803C109.663 96.4423 105.286 108.553 92.0133 109.401C78.737 110.239 76.0846 96.3561 78.1716 93.3996C81.0231 89.3557 87.848 93.1188 92.7122 92.6955C97.5725 92.2629 103.329 88.1972 106.478 92.2895L106.474 92.2803Z" fill="#1F1F40"/>
<path d="M87.9274 97.968C85.1864 100.106 83.237 103.232 82.4336 106.597C84.6958 108.458 87.8217 109.669 92.0134 109.402C101.53 108.798 106.468 102.407 107.335 97.3067C106.167 96.5552 104.914 95.9374 103.601 95.4864C98.3911 93.698 92.2761 94.579 87.9274 97.968Z" fill="#FF2936"/>
<path d="M83.4809 63.0388C81.6471 62.6907 79.7891 63.5598 78.2761 64.6513C75.0622 66.9798 74.4935 72.2456 74.4935 72.2456C74.4935 72.2456 72.9797 69.5647 71.9888 68.3893C70.4212 66.525 67.7438 65.6779 65.3912 66.2797C63.0294 66.8854 61.1053 68.9243 60.6211 71.3055C59.9225 74.7893 62.1233 78.1882 64.6288 80.696C66.5089 82.5792 73.1063 87.4396 75.385 88.8047C80.1386 85.1668 85.7596 78.3645 87.1589 72.5484C87.6068 70.6937 87.8422 68.7231 87.3211 66.8906C86.7999 65.0581 85.3647 63.3765 83.4954 63.0218L83.4809 63.0388Z" fill="#FF2936"/>
<path d="M83.4819 63.0389C82.7954 62.9079 82.1164 62.9476 81.4439 63.1041C82.8106 64.1409 83.7495 65.806 84.1343 67.5227C85.2221 72.3643 82.6484 77.5943 78.5055 80.3192C74.5493 82.921 69.0364 83.3276 65.1196 80.6719C64.246 80.0771 63.479 79.3498 62.7592 78.5806C63.3266 79.3496 63.9598 80.0688 64.6192 80.7224C66.4993 82.6055 73.0967 87.466 75.3754 88.8311C80.129 85.1932 85.75 78.3908 87.1493 72.5747C87.5973 70.72 87.8326 68.7495 87.3115 66.917C86.7904 65.0844 85.3551 63.4029 83.4858 63.0481L83.4819 63.0389Z" fill="#BF101F"/>
<path d="M117.12 63.6956C115.505 62.7649 113.462 62.9732 111.669 63.5101C107.864 64.6559 105.599 69.4386 105.599 69.4386C105.599 69.4386 105.043 66.4033 104.498 64.9726C103.627 62.7023 101.385 61.0168 98.9603 60.8123C96.5354 60.6077 94.0425 61.8999 92.8051 63.9937C90.9989 67.0478 91.962 70.9858 93.5027 74.1881C94.6572 76.5875 99.29 83.341 100.999 85.3841C106.681 83.5137 114.22 78.9373 117.453 73.9039C118.487 72.2996 119.356 70.5151 119.466 68.6087C119.577 66.7023 118.778 64.6514 117.12 63.6956Z" fill="#FF2936"/>
<path d="M117.119 63.693C116.517 63.352 115.857 63.1554 115.175 63.0874C116.129 64.5069 116.468 66.3956 116.268 68.1443C115.706 73.0701 111.548 77.1606 106.739 78.3758C102.145 79.5322 96.8051 78.1034 93.9878 74.3044C93.3535 73.4552 92.877 72.517 92.4517 71.546C92.7327 72.459 93.1003 73.3458 93.4982 74.1763C94.6527 76.5757 99.2855 83.3292 100.995 85.3723C106.676 83.5019 114.215 78.9254 117.449 73.8921C118.482 72.2878 119.351 70.5033 119.462 68.5969C119.573 66.6905 118.773 64.6396 117.115 63.6838L117.119 63.693Z" fill="#BF101F"/>
<defs>
<linearGradient id="paint0_linear_5_5188" x1="64.8024" y1="67.388" x2="118.842" y2="106.331" gradientUnits="userSpaceOnUse">
<stop stop-color="#FFF900"/>
<stop offset="1" stop-color="#FF7C00"/>
</linearGradient>
</defs>
</svg>
