<svg width="59" height="45" viewBox="0 0 59 45" fill="none" xmlns="http://www.w3.org/2000/svg">
<path d="M51.468 8.26843L15.458 0.228425C10.358 -0.911575 5.24796 2.32844 4.11796 7.42844L0.747957 22.5084C-0.392043 27.6084 2.84796 32.7184 7.94796 33.8484L16.658 35.7884C19.908 40.5984 21.598 44.4384 23.038 44.7584C24.438 45.0684 28.128 41.9084 32.618 39.3584L43.958 41.8884C49.058 43.0284 54.168 39.7884 55.298 34.6884L58.668 19.6084C59.808 14.5084 56.568 9.39843 51.468 8.26843Z" fill="url(#paint0_linear_5_5144)"/>
<path d="M18.4096 18.3013L16.1654 28.2513C16.0147 28.9194 16.4341 29.5831 17.1022 29.7338L20.692 30.5434C21.3601 30.6941 22.0238 30.2747 22.1744 29.6066L24.4186 19.6566C24.5693 18.9885 24.1499 18.3248 23.4818 18.1741L19.892 17.3645C19.2239 17.2138 18.5602 17.6332 18.4096 18.3013Z" fill="#FCFCFC"/>
<path d="M39.4183 23.0077L39.2083 22.9578C40.2583 23.1978 41.3183 22.5278 41.5483 21.4778C41.7883 20.4278 41.1183 19.3678 40.0683 19.1378L33.9383 17.7577C34.9683 16.7377 36.4183 15.0678 36.7683 13.5178C37.3183 11.0578 36.2883 9.38775 35.4383 9.03775C34.5983 8.68775 33.8483 9.00777 33.4283 9.68777C33.0083 10.3678 33.1383 11.8778 32.8483 12.3378C32.4083 13.0478 30.8183 13.7778 28.4583 15.7178C26.3483 17.4478 26.0183 19.9878 26.0183 19.9878L25.2483 23.3778L24.4783 26.7678L24.1183 28.3477C23.9683 28.9977 24.3883 29.6578 25.0383 29.8078L36.4283 32.3778C37.1883 32.5478 37.9583 32.0678 38.1283 31.3078C38.2983 30.5478 37.8183 29.7778 37.0583 29.6078L37.2583 29.6478C38.1883 29.8578 39.1283 29.2678 39.3383 28.3378C39.5483 27.4078 38.9583 26.4677 38.0283 26.2577L38.6483 26.3978C39.5783 26.6078 40.5183 26.0178 40.7283 25.0878C40.9383 24.1578 40.3483 23.2177 39.4183 23.0077Z" fill="#FCFCFC"/>
<defs>
<linearGradient id="paint0_linear_5_5144" x1="20.6321" y1="-3.31804" x2="38.7765" y2="45.4446" gradientUnits="userSpaceOnUse">
<stop stop-color="#65BBFF"/>
<stop offset="1" stop-color="#315DA4"/>
</linearGradient>
</defs>
</svg>
