<svg width="145" height="113" viewBox="0 0 145 113" fill="none" xmlns="http://www.w3.org/2000/svg">
<path d="M103.886 0.926184L17.2557 26.1662C4.98571 29.7462 -2.13428 42.7062 1.44572 54.9762L12.0157 91.2662C15.5857 103.536 28.5557 110.656 40.8257 107.076L61.7757 100.976C74.4157 107.446 82.5657 113.676 86.0157 112.666C89.3857 111.686 93.5557 100.556 100.166 89.7862L127.456 81.8362C139.726 78.2662 146.846 65.2962 143.266 53.0262L132.696 16.7362C129.126 4.46618 116.156 -2.65382 103.886 0.926184Z" fill="#FCFCFC"/>
<path d="M99.7288 74.0051C109.571 59.1405 105.5 39.1115 90.6353 29.2691C75.7707 19.4267 55.7417 23.498 45.8993 38.3626C36.057 53.2272 40.1283 73.2562 54.9928 83.0986C69.8574 92.941 89.8864 88.8697 99.7288 74.0051Z" fill="url(#paint0_linear_5_5162)"/>
<path d="M87.9049 57.5677C91.9449 60.6477 90.9349 73.0877 78.7249 77.2477C66.5249 81.4077 60.5049 69.0977 61.7049 65.7977C63.3449 61.2977 70.6849 63.0777 75.1249 61.4377C79.5649 59.7977 83.9149 54.5377 87.8949 57.5677H87.9049Z" fill="#1F1F40"/>
<path d="M72.0055 67.5878C69.9855 70.2878 68.9555 73.6978 69.0555 77.0578C71.6455 78.2278 74.8755 78.5578 78.7355 77.2478C87.4755 74.2678 90.4755 67.0378 89.9855 62.0378C88.7055 61.6378 87.3755 61.3778 86.0255 61.2878C80.6955 60.9378 75.2055 63.3178 71.9955 67.5878H72.0055Z" fill="#FF2936"/>
<path d="M58.9752 36.0595C57.1752 36.1995 55.6552 37.4894 54.5152 38.8894C52.0952 41.8894 52.9052 46.9594 52.9052 46.9594C52.9052 46.9594 50.8052 44.8394 49.5752 43.9894C47.6352 42.6494 44.9152 42.5294 42.8652 43.6894C40.8152 44.8594 39.5252 47.2494 39.6852 49.6094C39.9152 53.0394 42.8352 55.6594 45.8152 57.3794C48.0552 58.6694 55.4552 61.5294 57.9352 62.2294C61.4552 57.6194 64.9852 49.8294 64.8152 44.0394C64.7652 42.1894 64.4852 40.2894 63.5252 38.6994C62.5652 37.1194 60.8052 35.9095 58.9652 36.0595H58.9752Z" fill="#FF2936"/>
<path d="M58.9753 36.0595C58.3053 36.1095 57.6753 36.3194 57.0853 36.6394C58.6253 37.2594 59.9352 38.5794 60.7253 40.0794C62.9753 44.3294 61.8852 49.8794 58.7052 53.4794C55.6652 56.9194 50.6153 58.6994 46.2753 57.2094C45.3053 56.8794 44.4052 56.3894 43.5352 55.8494C44.2552 56.4194 45.0352 56.9294 45.8152 57.3794C48.0552 58.6694 55.4552 61.5294 57.9352 62.2294C61.4552 57.6194 64.9852 49.8294 64.8152 44.0394C64.7652 42.1894 64.4853 40.2894 63.5253 38.6994C62.5653 37.1194 60.8052 35.9095 58.9652 36.0595H58.9753Z" fill="#BF101F"/>
<path d="M90.6057 28.128C88.8557 27.668 86.9956 28.378 85.4656 29.338C82.1956 31.378 81.2956 36.428 81.2956 36.428C81.2956 36.428 80.0057 33.728 79.1357 32.528C77.7457 30.618 75.2157 29.618 72.8957 30.038C70.5757 30.468 68.5657 32.298 67.9457 34.578C67.0357 37.898 68.9356 41.328 71.1856 43.928C72.8756 45.878 78.9257 51.018 81.0357 52.498C85.8757 49.298 91.7656 43.108 93.5156 37.578C94.0756 35.808 94.4357 33.928 94.0557 32.118C93.6757 30.308 92.4057 28.588 90.6157 28.118L90.6057 28.128Z" fill="#FF2936"/>
<path d="M90.6056 28.1265C89.9556 27.9565 89.2956 27.9465 88.6356 28.0565C89.8856 29.1465 90.6856 30.8265 90.9356 32.5065C91.6556 37.2565 88.8156 42.1465 84.6256 44.4965C80.6256 46.7465 75.2656 46.7665 71.6556 43.9265C70.8556 43.2965 70.1656 42.5365 69.5156 41.7465C70.0156 42.5265 70.5756 43.2665 71.1656 43.9465C72.8556 45.8965 78.9056 51.0365 81.0156 52.5165C85.8556 49.3165 91.7456 43.1265 93.4956 37.5965C94.0556 35.8265 94.4156 33.9465 94.0356 32.1365C93.6556 30.3265 92.3856 28.6065 90.5956 28.1365L90.6056 28.1265Z" fill="#BF101F"/>
<defs>
<linearGradient id="paint0_linear_5_5162" x1="42.5712" y1="44.8269" x2="103.006" y2="67.5112" gradientUnits="userSpaceOnUse">
<stop stop-color="#FFF900"/>
<stop offset="1" stop-color="#FF7C00"/>
</linearGradient>
</defs>
</svg>
