<svg width="47" height="48" viewBox="0 0 47 48" fill="none" xmlns="http://www.w3.org/2000/svg">
<path d="M44.3345 25.885L24.1145 2.705C21.2545 -0.574998 16.2245 -0.924992 12.9345 1.94501L3.22454 10.415C-0.0554578 13.275 -0.405468 18.305 2.46453 21.595L7.35453 27.205C7.16453 32.045 6.40453 35.455 7.21453 36.375C8.00453 37.275 12.0445 36.975 16.3145 37.475L22.6845 44.775C25.5445 48.055 30.5745 48.405 33.8645 45.535L43.5745 37.065C46.8545 34.205 47.2045 29.175 44.3345 25.885Z" fill="url(#paint0_linear_5_5138)"/>
<path d="M10.7561 21.8636L17.1731 16.2893C17.6034 15.9155 18.2523 15.9611 18.6261 16.3914L20.6394 18.7091C21.0132 19.1394 20.9676 19.7884 20.5373 20.1622L14.1203 25.7364C13.69 26.1102 13.0411 26.0646 12.6673 25.6343L10.654 23.3166C10.2802 22.8863 10.3258 22.2374 10.7561 21.8636Z" fill="#FCFCFC"/>
<path d="M28.9642 29.8347L28.8442 29.6947C29.4342 30.3747 30.4742 30.4447 31.1442 29.8547C31.8242 29.2647 31.8942 28.2247 31.3042 27.5547L27.8642 23.5947C29.0542 23.4147 30.8542 23.0147 31.8542 22.1447C33.4442 20.7647 33.5642 19.1347 33.1742 18.4847C32.7842 17.8347 32.1242 17.6747 31.5042 17.9247C30.8842 18.1747 30.2242 19.2547 29.8042 19.4247C29.1542 19.6847 27.7342 19.3947 25.1842 19.5247C22.9142 19.6447 21.4442 21.1847 21.4442 21.1847L19.2542 23.0847L17.0642 24.9847L16.0442 25.8747C15.6242 26.2447 15.5742 26.8847 15.9442 27.3047L22.3242 34.6547C22.7542 35.1447 23.5042 35.1947 23.9942 34.7747C24.4842 34.3447 24.5342 33.5947 24.1142 33.1047L24.2242 33.2347C24.7442 33.8347 25.6642 33.9047 26.2742 33.3747C26.8742 32.8547 26.9442 31.9347 26.4142 31.3247L26.7642 31.7247C27.2842 32.3247 28.2042 32.3947 28.8142 31.8647C29.4142 31.3447 29.4842 30.4247 28.9542 29.8147L28.9642 29.8347Z" fill="#FCFCFC"/>
<defs>
<linearGradient id="paint0_linear_5_5138" x1="29.336" y1="2.87831" x2="17.4494" y2="44.6064" gradientUnits="userSpaceOnUse">
<stop stop-color="#65BBFF"/>
<stop offset="1" stop-color="#315DA4"/>
</linearGradient>
</defs>
</svg>
