<svg width="67" height="52" viewBox="0 0 67 52" fill="none" xmlns="http://www.w3.org/2000/svg">
<path d="M48.1967 0.397123L8.30665 11.5971C2.65665 13.1871 -0.673349 19.1071 0.916651 24.7571L5.60665 41.4671C7.19665 47.1171 13.1166 50.4471 18.7666 48.8571L28.4167 46.1471C34.1967 49.1771 37.9067 52.0671 39.4967 51.6271C41.0467 51.1871 43.0066 46.0971 46.0966 41.1871L58.6566 37.6571C64.3066 36.0671 67.6367 30.1471 66.0467 24.4971L61.3567 7.78708C59.7667 2.13708 53.8467 -1.19288 48.1967 0.397123Z" fill="#DC3E6C"/>
<path d="M45.3457 18.3288C44.1357 13.9088 39.8557 11.6888 36.3857 12.6388C33.4657 13.4388 31.3857 16.1088 31.3657 19.0088C29.8657 16.5288 26.7157 15.2887 23.7957 16.0987C20.3157 17.0487 17.7757 21.1488 18.9957 25.5588C20.8357 32.2488 33.2057 37.0988 35.9557 37.2088C36.0057 37.2088 36.0657 37.2088 36.1157 37.2088C36.1957 37.2088 36.2757 37.1988 36.3357 37.1788C36.3357 37.1788 36.3457 37.1788 36.3557 37.1788C36.3557 37.1788 36.3657 37.1788 36.3757 37.1788C36.4357 37.1588 36.5057 37.1288 36.5757 37.0888C36.6257 37.0688 36.6657 37.0388 36.7157 37.0088C39.0257 35.5088 47.1957 25.0288 45.3557 18.3388L45.3457 18.3288Z" fill="#FCFCFC"/>
</svg>
