<svg width="90" height="71" viewBox="0 0 90 71" fill="none" xmlns="http://www.w3.org/2000/svg">
<path d="M80.6451 20.4985L28.4151 0.908452C21.0151 -1.86155 12.6951 1.91845 9.91509 9.31845L1.71509 31.1985C-1.05491 38.5985 2.72509 46.9184 10.1251 49.6984L22.7551 54.4385C26.6151 62.3185 28.3451 68.4184 30.4251 69.1984C32.4551 69.9585 38.6451 65.9885 45.9051 63.1185L62.3551 69.2885C69.7551 72.0584 78.0751 68.2785 80.8551 60.8784L89.0551 38.9985C91.8251 31.5985 88.0451 23.2785 80.6451 20.4985Z" fill="url(#paint0_linear_5_5110)"/>
<path d="M63.2849 37.6988C65.4849 31.9388 62.6149 26.1188 58.0749 24.3888C54.2649 22.9288 49.8849 24.1788 47.5549 27.3088C47.9049 23.4288 45.4649 19.5788 41.6549 18.1188C37.1249 16.3888 31.1049 18.8088 28.9049 24.5688C25.5749 33.2988 35.1549 48.4088 38.0549 50.7188C38.1049 50.7688 38.1649 50.8088 38.2249 50.8488C38.3149 50.9088 38.4049 50.9588 38.4849 50.9888H38.5049C38.5049 50.9888 38.5149 50.9888 38.5249 50.9988C38.6049 51.0288 38.6949 51.0488 38.8149 51.0588C38.8849 51.0688 38.9549 51.0788 39.0349 51.0788C42.7349 51.2988 59.9449 46.4088 63.2849 37.6788V37.6988Z" fill="#FCFCFC"/>
<defs>
<linearGradient id="paint0_linear_5_5110" x1="13.8651" y1="3.56845" x2="76.9151" y2="66.6185" gradientUnits="userSpaceOnUse">
<stop stop-color="#D65F83"/>
<stop offset="1" stop-color="#DC3E6C"/>
</linearGradient>
</defs>
</svg>
