<svg width="80" height="68" viewBox="0 0 80 68" fill="none" xmlns="http://www.w3.org/2000/svg">
<path d="M72.9856 25.4285L29.2956 1.97853C23.1056 -1.34147 15.3256 0.998533 12.0056 7.18853L2.18556 25.4885C-1.13444 31.6785 1.20556 39.4585 7.39556 42.7785L17.9656 48.4485C20.4356 55.8585 21.2256 61.4285 22.9756 62.3685C24.6756 63.2785 30.5956 60.5185 37.3356 58.8485L51.0956 66.2385C57.2856 69.5585 65.0656 67.2185 68.3856 61.0285L78.2056 42.7285C81.5256 36.5385 79.1856 28.7585 72.9956 25.4385L72.9856 25.4285Z" fill="#FCFCFC"/>
<path d="M42.8581 52.5539C52.4812 50.7129 58.7898 41.4196 56.9489 31.7966C55.108 22.1735 45.8146 15.8649 36.1916 17.7058C26.5686 19.5467 20.2599 28.8401 22.1008 38.4631C23.9418 48.0861 33.2351 54.3948 42.8581 52.5539Z" fill="url(#paint0_linear_5_5201)"/>
<path d="M44.9154 41.4889C45.3154 44.2488 40.1254 48.7389 33.7354 45.6789C27.3454 42.6089 29.7254 35.4689 31.4754 34.6389C33.8554 33.5089 36.0454 37.0289 38.4154 38.0989C40.7854 39.1689 44.5254 38.7789 44.9154 41.4989V41.4889Z" fill="#1F1F40"/>
<path d="M34.8156 39.2983C32.9856 39.5783 31.2656 40.5183 30.0156 41.8783C30.5756 43.3283 31.7256 44.7083 33.7356 45.6783C38.3156 47.8783 42.2756 46.1983 44.0056 44.0483C43.6556 43.3983 43.2356 42.7883 42.7456 42.2283C40.7856 40.0383 37.7256 38.8583 34.8156 39.2983Z" fill="#FF2936"/>
<path d="M41.8563 21.91C41.0963 21.27 40.0063 21.19 39.0163 21.31C36.9163 21.56 35.2763 23.85 35.2763 23.85C35.2763 23.85 35.2763 22.21 35.1163 21.41C34.8663 20.14 33.8563 19.04 32.5963 18.71C31.3463 18.38 29.9163 18.82 29.0663 19.8C27.8363 21.23 27.9763 23.39 28.4763 25.21C28.8563 26.57 30.6563 30.55 31.3663 31.78C34.5163 31.33 38.9063 29.63 41.0663 27.3C41.7563 26.55 42.3863 25.7 42.6163 24.71C42.8563 23.72 42.6163 22.57 41.8463 21.92L41.8563 21.91Z" fill="#FF2936"/>
<path d="M41.8556 21.9102C41.5756 21.6702 41.2456 21.5102 40.8956 21.4102C41.2656 22.2502 41.2656 23.2702 40.9956 24.1602C40.2456 26.6902 37.6755 28.4502 35.0455 28.6402C32.5355 28.8202 29.8655 27.5702 28.7355 25.3202C28.4855 24.8202 28.3155 24.2802 28.1855 23.7302C28.2455 24.2302 28.3555 24.7302 28.4855 25.2102C28.8655 26.5702 30.6655 30.5502 31.3755 31.7802C34.5255 31.3302 38.9156 29.6302 41.0756 27.2902C41.7656 26.5402 42.3955 25.6902 42.6255 24.7002C42.8655 23.7102 42.6256 22.5602 41.8556 21.9102Z" fill="#BF101F"/>
<path d="M57.3055 30.9789C56.7955 30.1289 55.7955 29.6889 54.8255 29.4789C52.7555 29.0189 50.4555 30.6489 50.4555 30.6489C50.4555 30.6489 50.9855 29.0989 51.1055 28.2889C51.2955 27.0089 50.6855 25.6389 49.6155 24.9089C48.5455 24.1789 47.0455 24.1289 45.9255 24.7789C44.2955 25.7289 43.7155 27.8089 43.5955 29.6989C43.5055 31.1089 43.8955 35.4589 44.1655 36.8489C47.2955 37.4589 51.9855 37.2989 54.8055 35.7989C55.7055 35.3189 56.5755 34.7189 57.1255 33.8689C57.6755 33.0089 57.8355 31.8489 57.3155 30.9789H57.3055Z" fill="#FF2936"/>
<path d="M57.3055 30.9792C57.1155 30.6592 56.8555 30.3992 56.5555 30.1892C56.6255 31.0992 56.2955 32.0692 55.7455 32.8192C54.2055 34.9592 51.2055 35.7792 48.6555 35.0892C46.2255 34.4292 44.1055 32.3792 43.7855 29.8792C43.7155 29.3192 43.7355 28.7592 43.7855 28.1992C43.6855 28.6992 43.6155 29.1992 43.5855 29.6992C43.4955 31.1092 43.8855 35.4592 44.1555 36.8492C47.2855 37.4592 51.9755 37.2992 54.7955 35.7992C55.6955 35.3192 56.5655 34.7192 57.1155 33.8692C57.6655 33.0092 57.8255 31.8492 57.3055 30.9792Z" fill="#BF101F"/>
<defs>
<linearGradient id="paint0_linear_5_5201" x1="32.0387" y1="19.0475" x2="46.9968" y2="51.2153" gradientUnits="userSpaceOnUse">
<stop stop-color="#FFF900"/>
<stop offset="1" stop-color="#FF7C00"/>
</linearGradient>
</defs>
</svg>
