<svg width="145" height="115" viewBox="0 0 145 115" fill="none" xmlns="http://www.w3.org/2000/svg">
<path d="M100.586 1.49804L15.7862 32.348C3.77624 36.718 -2.47376 50.118 1.89624 62.138L14.8162 97.658C19.1862 109.668 32.5862 115.918 44.6062 111.548L65.1162 104.088C78.1562 109.718 86.6862 115.398 90.0762 114.168C93.3662 112.968 96.8062 101.588 102.706 90.408L129.416 80.688C141.426 76.318 147.676 62.918 143.306 50.898L130.386 15.378C126.016 3.36803 112.616 -2.88197 100.596 1.48803L100.586 1.49804Z" fill="#FCFCFC"/>
<path d="M68.086 25.7408C50.616 28.1908 38.326 44.5008 40.776 61.9708C43.226 79.4408 59.536 91.7308 77.006 89.2808C94.476 86.8308 106.766 70.5208 104.316 53.0508C101.866 35.5808 85.556 23.2908 68.086 25.7408Z" fill="url(#paint0_linear_5_5150)"/>
<path d="M57.2254 60.1722C54.2054 60.5322 52.2654 63.6622 53.4154 66.4822C53.4154 66.5022 53.4354 66.5222 53.4454 66.5422C58.3654 78.5422 71.2554 84.6222 82.2154 80.1222C93.1754 75.6222 98.0754 62.2422 93.1554 50.2522C93.1554 50.2322 93.1354 50.2122 93.1254 50.1922C91.9654 47.3822 88.3854 46.5122 85.9754 48.3822C82.2154 51.2922 77.5654 53.9222 72.3354 56.0722C67.1054 58.2222 61.9454 59.6122 57.2254 60.1822V60.1722Z" fill="#1F1F40"/>
<path d="M82.2051 80.1211C86.1151 78.5211 89.2351 75.7711 91.4351 72.3711C91.4351 72.3711 86.8351 71.3711 79.8051 74.2511C71.9051 77.2511 70.2051 81.0811 70.2051 81.0811C74.1551 81.9511 78.3051 81.7211 82.2151 80.1111L82.2051 80.1211Z" fill="#FF2936"/>
<path d="M86.3956 43.5694C86.2856 43.6094 86.1756 43.6394 86.0556 43.6494L77.7856 44.3094C77.2856 44.3494 76.8156 44.0794 76.5956 43.6294C76.3756 43.1794 76.4456 42.6494 76.7756 42.2694C76.7756 42.2694 81.4256 37.0694 82.8056 35.4894C83.2556 34.9794 84.0256 34.9294 84.5256 35.3694C85.0356 35.8094 85.0856 36.5894 84.6456 37.0894C83.8756 37.9794 82.0656 40.0094 80.6356 41.6194L85.8656 41.1994C86.5356 41.1494 87.1256 41.6494 87.1756 42.3194C87.2256 42.8694 86.8856 43.3694 86.3956 43.5594V43.5694Z" fill="#1F1F40"/>
<path d="M54.2759 55.2514C53.7859 55.4414 53.2059 55.2914 52.8659 54.8414C52.4559 54.3014 52.5659 53.5414 53.1059 53.1314L57.2859 49.9614C55.1459 49.7114 52.4459 49.4014 51.2759 49.2514C50.6059 49.1714 50.1359 48.5514 50.2159 47.8814C50.2959 47.2114 50.9059 46.7414 51.5759 46.8214C53.6559 47.0814 60.5859 47.8714 60.5859 47.8714C61.0859 47.9314 61.4959 48.2814 61.6259 48.7614C61.7559 49.2414 61.5859 49.7614 61.1859 50.0614L54.5759 55.0714C54.4759 55.1414 54.3759 55.2014 54.2759 55.2414V55.2514Z" fill="#1F1F40"/>
<defs>
<linearGradient id="paint0_linear_5_5150" x1="46.9574" y1="38.2132" x2="98.1271" y2="76.7952" gradientUnits="userSpaceOnUse">
<stop stop-color="#FFF900"/>
<stop offset="1" stop-color="#FF7C00"/>
</linearGradient>
</defs>
</svg>
