<svg width="49" height="39" viewBox="0 0 49 39" fill="none" xmlns="http://www.w3.org/2000/svg">
<path d="M36.6861 0.638911L6.6061 7.02893C2.3461 7.93893 -0.403901 12.1589 0.506099 16.4289L3.18609 29.0289C4.09609 33.2889 8.31609 36.0389 12.5861 35.1289L19.8661 33.5789C23.9961 36.0989 26.6161 38.4189 27.8161 38.1689C28.9861 37.9189 30.6861 34.2389 33.2061 30.7489L42.6861 28.7389C46.9461 27.8289 49.6961 23.6089 48.7861 19.3389L46.1061 6.73892C45.1961 2.47892 40.9761 -0.271089 36.7061 0.638911H36.6861Z" fill="url(#paint0_linear_5_5126)"/>
<path d="M18.9106 17.8513L15.9064 18.4833C15.3497 18.6004 14.9934 19.1466 15.1105 19.7032L16.8624 28.031C16.9795 28.5876 17.5257 28.944 18.0823 28.8269L21.0866 28.1949C21.6433 28.0778 21.9996 27.5316 21.8825 26.9749L20.1306 18.6472C20.0135 18.0905 19.4673 17.7342 18.9106 17.8513Z" fill="#FCFCFC"/>
<path d="M32.6658 15.9899L32.4858 16.0299C33.3658 15.8399 33.9358 14.9699 33.7458 14.0899C33.5658 13.2099 32.6858 12.6399 31.8158 12.8299L26.6858 13.9099C27.1058 12.7799 27.6358 11.0099 27.3558 9.70986C26.9258 7.64986 25.5558 6.74986 24.7958 6.76986C24.0358 6.78986 23.5758 7.29986 23.4958 7.95986C23.4158 8.61986 24.0358 9.71987 23.9758 10.1699C23.8858 10.8599 22.9358 11.9699 21.8158 14.2599C20.8158 16.3099 21.4458 18.3399 21.4458 18.3399L22.0458 21.1799L22.6458 24.0199L22.9258 25.3399C23.0458 25.8899 23.5858 26.2399 24.1258 26.1299L33.6558 24.1299C34.2958 23.9999 34.7058 23.3699 34.5658 22.7299C34.4358 22.0899 33.8058 21.6799 33.1658 21.8199L33.3258 21.7899C34.1058 21.6299 34.6058 20.8499 34.4458 20.0699C34.2858 19.2899 33.5058 18.7899 32.7258 18.9499L33.2458 18.8399C34.0258 18.6799 34.5258 17.8999 34.3658 17.1199C34.2058 16.3399 33.4258 15.8399 32.6458 15.9999L32.6658 15.9899Z" fill="#FCFCFC"/>
<defs>
<linearGradient id="paint0_linear_5_5126" x1="9.2961" y1="2.54891" x2="39.9761" y2="33.2189" gradientUnits="userSpaceOnUse">
<stop stop-color="#65BBFF"/>
<stop offset="1" stop-color="#315DA4"/>
</linearGradient>
</defs>
</svg>
