<svg width="150" height="120" viewBox="0 0 150 120" fill="none" xmlns="http://www.w3.org/2000/svg">
<path d="M134.425 37.0463L48.1455 2.06626C35.9255 -2.88374 21.8655 3.05626 16.9155 15.2763L2.26548 51.4163C-2.68452 63.6363 3.25548 77.6963 15.4755 82.6463L36.3455 91.1063C42.4455 104.436 45.0555 114.686 48.4955 116.076C51.8455 117.436 62.3455 111.086 74.5855 106.606L101.765 117.626C113.985 122.576 128.045 116.636 132.995 104.416L147.645 68.2763C152.595 56.0563 146.655 41.9963 134.435 37.0463H134.425Z" fill="#FCFCFC"/>
<path d="M93.2771 89.0098C108.233 78.3065 111.68 57.5058 100.977 42.5502C90.2735 27.5945 69.4728 24.1472 54.5171 34.8505C39.5615 45.5538 36.1142 66.3544 46.8175 81.3101C57.5207 96.2658 78.3214 99.713 93.2771 89.0098Z" fill="url(#paint0_linear_5_5175)"/>
<path d="M85.2662 72.6787C86.5662 77.7587 77.7862 87.1787 65.2462 82.7487C52.7062 78.3087 55.7162 64.4987 58.7962 62.5987C63.0062 59.9987 67.8062 66.1387 72.4462 67.6587C77.0862 69.1687 83.9762 67.6887 85.2662 72.6887V72.6787Z" fill="#1F1F40"/>
<path d="M65.9771 70.6266C62.6171 71.5166 59.5971 73.6266 57.5371 76.4066C58.8871 79.0066 61.2871 81.3466 65.2471 82.7466C74.2371 85.9266 81.2871 81.9865 84.0871 77.6365C83.3071 76.4865 82.3971 75.4266 81.3671 74.4966C77.2771 70.8066 71.3071 69.2166 65.9771 70.6266Z" fill="#FF2936"/>
<path d="M75.5963 36.7565C74.0463 35.7165 71.9963 35.7865 70.1763 36.1965C66.3063 37.0765 63.7163 41.6965 63.7163 41.6965C63.7163 41.6965 63.3763 38.6365 62.9263 37.1665C62.2163 34.8365 60.0863 33.0065 57.6863 32.6365C55.2763 32.2665 52.7063 33.3865 51.3263 35.3865C49.3163 38.3165 50.0063 42.3065 51.3263 45.5965C52.3163 48.0665 56.4763 55.1265 58.0363 57.2765C63.8363 55.7965 71.6763 51.7465 75.2463 46.9465C76.3863 45.4165 77.3763 43.6965 77.6163 41.8065C77.8563 39.9165 77.1963 37.8065 75.6163 36.7465L75.5963 36.7565Z" fill="#FF2936"/>
<path d="M75.5956 36.7556C75.0156 36.3656 74.3755 36.1356 73.6955 36.0156C74.5455 37.5056 74.7555 39.4056 74.4355 41.1356C73.5355 46.0156 69.1156 49.8156 64.2355 50.6956C59.5756 51.5356 54.3456 49.7456 51.7856 45.7656C51.2156 44.8756 50.7955 43.9056 50.4355 42.9156C50.6555 43.8456 50.9555 44.7556 51.3055 45.6156C52.2955 48.0856 56.4555 55.1456 58.0155 57.2956C63.8155 55.8156 71.6555 51.7656 75.2255 46.9656C76.3655 45.4356 77.3556 43.7156 77.5956 41.8256C77.8356 39.9356 77.1756 37.8256 75.5956 36.7656V36.7556Z" fill="#BF101F"/>
<path d="M106.276 50.5699C105.156 49.0799 103.196 48.4699 101.336 48.2599C97.3863 47.8199 93.4263 51.3299 93.4263 51.3299C93.4263 51.3299 94.1063 48.3199 94.1663 46.7899C94.2563 44.3599 92.8563 41.9299 90.7063 40.7899C88.5563 39.6499 85.7563 39.8599 83.7963 41.2999C80.9363 43.3999 80.2763 47.3999 80.4363 50.9499C80.5563 53.6099 82.1663 61.6399 82.9363 64.1899C88.8963 64.6999 97.6263 63.4499 102.576 60.0899C104.156 59.0199 105.656 57.7199 106.506 56.0099C107.356 54.2999 107.426 52.0999 106.276 50.5699Z" fill="#FF2936"/>
<path d="M106.276 50.5694C105.856 50.0194 105.326 49.5794 104.726 49.2494C105.046 50.9294 104.616 52.7994 103.746 54.3294C101.296 58.6394 95.866 60.7694 90.966 59.9994C86.286 59.2594 81.936 55.8494 80.836 51.2494C80.586 50.2194 80.516 49.1694 80.506 48.1094C80.406 49.0594 80.396 50.0194 80.436 50.9394C80.556 53.5994 82.166 61.6294 82.936 64.1794C88.896 64.6894 97.626 63.4394 102.576 60.0794C104.156 59.0094 105.656 57.7094 106.506 55.9994C107.356 54.2894 107.426 52.0894 106.276 50.5594V50.5694Z" fill="#BF101F"/>
<defs>
<linearGradient id="paint0_linear_5_5175" x1="56.7084" y1="33.4268" x2="91.1244" y2="90.4562" gradientUnits="userSpaceOnUse">
<stop stop-color="#FFF900"/>
<stop offset="1" stop-color="#FF7C00"/>
</linearGradient>
</defs>
</svg>
