<svg width="73" height="57" viewBox="0 0 73 57" fill="none" xmlns="http://www.w3.org/2000/svg">
<path d="M64.1063 14.9781L21.0563 1.31808C14.9563 -0.621922 8.38628 2.78809 6.44628 8.88809L0.726283 26.9181C-1.21372 33.0181 2.19628 39.5881 8.29628 41.5281L18.7063 44.8281C22.1563 51.0481 23.8063 55.9081 25.5263 56.4481C27.1963 56.9781 32.0363 53.5181 37.7863 50.8781L51.3463 55.1781C57.4463 57.1181 64.0163 53.7081 65.9563 47.6081L71.6763 29.5781C73.6063 23.4781 70.2063 16.9081 64.1063 14.9681V14.9781Z" fill="#DC3E6C"/>
<path d="M50.7766 29.6055C52.3166 24.8555 49.7466 20.2755 46.0066 19.0655C42.8666 18.0455 39.3666 19.2355 37.6166 21.8655C37.7366 18.7055 35.6066 15.6955 32.4566 14.6855C28.7166 13.4755 23.9566 15.6855 22.4166 20.4355C20.0866 27.6355 28.4666 39.4555 30.9066 41.1955C30.9566 41.2355 30.9966 41.2655 31.0466 41.2955C31.1266 41.3455 31.1966 41.3755 31.2566 41.3955C31.2566 41.3955 31.2666 41.3955 31.2766 41.3955C31.2766 41.3955 31.2866 41.3955 31.2966 41.3955C31.3566 41.4155 31.4366 41.4255 31.5266 41.4355C31.5866 41.4355 31.6466 41.4355 31.6966 41.4355C34.6966 41.4555 48.4166 36.7855 50.7466 29.5855L50.7766 29.6055Z" fill="#FCFCFC"/>
</svg>
