<svg width="86" height="74" viewBox="0 0 86 74" fill="none" xmlns="http://www.w3.org/2000/svg">
<g filter="url(#filter0_d_5_5132)">
<path d="M47.8736 7.17407L17.7936 13.5641C13.5336 14.4741 10.7836 18.6941 11.6936 22.9641L14.3736 35.5641C15.2836 39.8241 19.5036 42.5741 23.7736 41.6641L31.0536 40.1141C35.1836 42.6341 37.8036 44.9541 39.0036 44.7041C40.1736 44.4541 41.8736 40.7741 44.3936 37.2841L53.8736 35.2741C58.1336 34.3641 60.8836 30.1441 59.9736 25.8741L57.2936 13.2741C56.3836 9.01407 52.1636 6.26407 47.8936 7.17407H47.8736Z" fill="url(#paint0_linear_5_5132)"/>
</g>
<path d="M30.0942 24.3825L27.09 25.0145C26.5333 25.1316 26.177 25.6779 26.2941 26.2345L28.046 34.5622C28.1631 35.1189 28.7093 35.4752 29.266 35.3581L32.2702 34.7261C32.8269 34.609 33.1832 34.0628 33.0661 33.5062L31.3142 25.1785C31.1971 24.6218 30.6509 24.2654 30.0942 24.3825Z" fill="#FCFCFC"/>
<path d="M43.8436 22.5228L43.6636 22.5628C44.5436 22.3828 45.1136 21.5028 44.9236 20.6328C44.7436 19.7528 43.8636 19.1828 42.9936 19.3728L37.8636 20.4528C38.2836 19.3228 38.8136 17.5528 38.5336 16.2528C38.1036 14.1928 36.7336 13.2928 35.9736 13.3128C35.2136 13.3328 34.7536 13.8428 34.6736 14.5028C34.5936 15.1628 35.2136 16.2628 35.1536 16.7128C35.0636 17.4028 34.1136 18.5128 32.9936 20.8028C31.9936 22.8528 32.6236 24.8828 32.6236 24.8828L33.2236 27.7228L33.8236 30.5628L34.1036 31.8828C34.2236 32.4328 34.7636 32.7828 35.3036 32.6728L44.8336 30.6728C45.4736 30.5428 45.8836 29.9128 45.7436 29.2728C45.6136 28.6328 44.9836 28.2228 44.3436 28.3628L44.5036 28.3328C45.2836 28.1728 45.7836 27.3928 45.6236 26.6128C45.4636 25.8328 44.6836 25.3328 43.9036 25.4928L44.4236 25.3828C45.2036 25.2228 45.7036 24.4428 45.5436 23.6628C45.3836 22.8828 44.6036 22.3828 43.8236 22.5428L43.8436 22.5228Z" fill="#FCFCFC"/>
<defs>
<filter id="filter0_d_5_5132" x="0.519531" y="0" width="84.6281" height="73.7227" filterUnits="userSpaceOnUse" color-interpolation-filters="sRGB">
<feFlood flood-opacity="0" result="BackgroundImageFix"/>
<feColorMatrix in="SourceAlpha" type="matrix" values="0 0 0 0 0 0 0 0 0 0 0 0 0 0 0 0 0 0 127 0" result="hardAlpha"/>
<feOffset dx="7" dy="11"/>
<feGaussianBlur stdDeviation="9"/>
<feColorMatrix type="matrix" values="0 0 0 0 0.129412 0 0 0 0 0.180392 0 0 0 0 0.341176 0 0 0 0.2 0"/>
<feBlend mode="normal" in2="BackgroundImageFix" result="effect1_dropShadow_5_5132"/>
<feBlend mode="normal" in="SourceGraphic" in2="effect1_dropShadow_5_5132" result="shape"/>
</filter>
<linearGradient id="paint0_linear_5_5132" x1="20.4736" y1="9.08407" x2="51.1536" y2="39.7641" gradientUnits="userSpaceOnUse">
<stop stop-color="#65BBFF"/>
<stop offset="1" stop-color="#315DA4"/>
</linearGradient>
</defs>
</svg>
