<svg width="63" height="56" viewBox="0 0 63 56" fill="none" xmlns="http://www.w3.org/2000/svg">
<path d="M38.2749 1.61542L5.14493 23.1154C0.454932 26.1654 -0.895068 32.4954 2.14493 37.1854L11.1549 51.0654C14.2049 55.7554 20.5349 57.1054 25.2249 54.0654L33.2349 48.8654C39.3549 49.9854 43.5449 51.5654 44.8749 50.7154C46.1649 49.8754 46.5049 44.6854 47.9249 39.3454L58.3649 32.5754C63.0549 29.5254 64.4049 23.1954 61.3649 18.5054L52.3549 4.6254C49.3049 -0.0645995 42.9749 -1.4146 38.2849 1.6254L38.2749 1.61542Z" fill="#DC3E6C"/>
<path d="M40.7654 18.7448C38.4054 15.0648 33.8854 14.2548 30.9954 16.1048C28.5654 17.6648 27.4254 20.6848 28.2254 23.3248C26.1654 21.4948 22.9454 21.2548 20.5054 22.8148C17.6154 24.6648 16.4554 29.1148 18.8154 32.7948C22.3854 38.3648 35.0254 39.2748 37.5554 38.5848C37.6054 38.5748 37.6554 38.5648 37.7054 38.5448C37.7854 38.5148 37.8454 38.4848 37.8954 38.4548C37.8954 38.4548 37.8954 38.4548 37.9054 38.4448C37.9054 38.4448 37.9154 38.4448 37.9254 38.4448C37.9754 38.4148 38.0254 38.3648 38.0854 38.3048C38.1254 38.2648 38.1554 38.2248 38.1854 38.1848C39.8654 36.1648 44.3254 24.3048 40.7554 18.7348L40.7654 18.7448Z" fill="#FCFCFC"/>
</svg>
