<svg width="126" height="114" viewBox="0 0 126 114" fill="none" xmlns="http://www.w3.org/2000/svg">
<path d="M95.4666 27.3998L31.1425 26.2839C22.0332 26.1286 14.4434 33.4523 14.2882 42.5616L13.8221 69.5044C13.6668 78.6137 20.9904 86.2035 30.0997 86.3588L45.6586 86.6279C52.904 93.7072 57.1338 99.6678 59.6973 99.7093C62.1953 99.7538 67.3877 93.0503 74.1667 87.1203L94.4303 87.4722C103.54 87.6275 111.129 80.3038 111.285 71.1945L111.751 44.2517C111.906 35.1424 104.582 27.5526 95.4731 27.3973L95.4666 27.3998Z" fill="#FCFCFC"/>
<path d="M81.8465 71.128C88.8302 60.5105 85.8844 46.2419 75.2669 39.2582C64.6494 32.2745 50.3808 35.2203 43.3971 45.8378C36.4134 56.4553 39.3591 70.7239 49.9767 77.7076C60.5942 84.6913 74.8628 81.7455 81.8465 71.128Z" fill="url(#paint0_linear_5_4952)"/>
<path d="M72.6232 62.5882C74.7237 65.5407 71.4031 73.7962 62.2167 74.0557C53.0278 74.3088 51.5371 64.6564 53.051 62.666C55.1195 59.9434 59.7401 62.7097 63.1096 62.5368C66.4767 62.3575 70.5515 59.6912 72.6257 62.5946L72.6232 62.5882Z" fill="#1F1F40"/>
<path d="M59.676 66.0594C57.7307 67.4681 56.3077 69.5791 55.6702 71.8834C57.1867 73.2244 59.3156 74.1369 62.2169 74.0556C68.8037 73.8722 72.3704 69.58 73.095 66.0794C72.3063 65.5317 71.4561 65.0743 70.5609 64.7306C67.0068 63.3676 62.7624 63.8259 59.676 66.0594Z" fill="#FF2936"/>
<path d="M57.4628 41.8303C56.205 41.5448 54.9005 42.0993 53.8289 42.8159C51.5522 44.345 51.0302 47.9675 51.0302 47.9675C51.0302 47.9675 50.0506 46.0789 49.3952 45.2429C48.3585 43.9169 46.5303 43.2662 44.8909 43.624C43.245 43.9843 41.8662 45.345 41.4734 46.9775C40.9054 49.3662 42.3417 51.7674 44.0103 53.5608C45.2624 54.9074 49.699 58.426 51.2391 59.4246C54.6111 57.0292 58.6599 52.4697 59.7691 48.4876C60.124 47.2178 60.335 45.8628 60.0201 44.5845C59.7052 43.3062 58.7554 42.1097 57.4732 41.8188L57.4628 41.8303Z" fill="#FF2936"/>
<path d="M57.4614 41.8309C56.9906 41.7235 56.5207 41.7342 56.0525 41.8258C56.9708 42.5754 57.5783 43.7483 57.8018 44.9433C58.4341 48.3135 56.5284 51.862 53.6004 53.642C50.8045 55.3415 46.9874 55.4869 44.3478 53.5567C43.7592 53.1245 43.2473 52.6034 42.7692 52.0545C43.1421 52.5995 43.5617 53.1117 44.0011 53.5793C45.2531 54.9259 49.6897 58.4444 51.2298 59.4431C54.6018 57.0476 58.6506 52.4882 59.7598 48.5061C60.1147 47.2363 60.3257 45.8813 60.0108 44.603C59.6959 43.3247 58.7461 42.1282 57.4639 41.8373L57.4614 41.8309Z" fill="#BF101F"/>
<path d="M80.6762 43.1091C79.5838 42.4267 78.1685 42.5204 76.917 42.8472C74.2607 43.545 72.5795 46.7921 72.5795 46.7921C72.5795 46.7921 72.2701 44.6824 71.9286 43.6809C71.3828 42.0917 69.8763 40.8728 68.2067 40.6719C66.5372 40.4711 64.7839 41.3022 63.878 42.7178C62.5557 44.7825 63.124 47.5256 64.1093 49.7749C64.8476 51.4602 67.881 56.2378 69.0111 57.6907C72.9808 56.5386 78.2992 53.5634 80.656 50.1669C81.4089 49.0844 82.0531 47.8734 82.1762 46.5596C82.2994 45.2458 81.7979 43.8099 80.6762 43.1091Z" fill="#FF2936"/>
<path d="M80.6754 43.1093C80.2679 42.859 79.8168 42.707 79.348 42.6433C79.9718 43.647 80.1592 44.9596 79.9784 46.1623C79.4696 49.5501 76.4976 52.2728 73.1468 52.9938C69.9454 53.6796 66.2932 52.5617 64.4409 49.869C64.0238 49.267 63.7178 48.6074 63.4479 47.9264C63.6195 48.5638 63.8516 49.1853 64.106 49.7685C64.8443 51.4538 67.8777 56.2315 69.0078 57.6843C72.9775 56.5322 78.2959 53.557 80.6527 50.1606C81.4056 49.078 82.0498 47.8671 82.1729 46.5533C82.2961 45.2395 81.7946 43.8036 80.6729 43.1028L80.6754 43.1093Z" fill="#BF101F"/>
<defs>
<linearGradient id="paint0_linear_5_4952" x1="44.4562" y1="44.3753" x2="80.8179" y2="72.5956" gradientUnits="userSpaceOnUse">
<stop stop-color="#FFF900"/>
<stop offset="1" stop-color="#FF7C00"/>
</linearGradient>
</defs>
</svg>
