<svg width="63" height="56" viewBox="0 0 63 56" fill="none" xmlns="http://www.w3.org/2000/svg">
<path d="M37.7554 1.61542L4.6254 23.1154C-0.0645995 26.1654 -1.4146 32.4954 1.6254 37.1854L10.6354 51.0654C13.6854 55.7554 20.0154 57.1054 24.7054 54.0654L32.7154 48.8654C38.8354 49.9854 43.0254 51.5654 44.3554 50.7154C45.6454 49.8754 45.9854 44.6854 47.4054 39.3454L57.8454 32.5754C62.5354 29.5254 63.8854 23.1954 60.8454 18.5054L51.8354 4.6254C48.7854 -0.0645995 42.4554 -1.4146 37.7654 1.6254L37.7554 1.61542Z" fill="#DC3E6C"/>
<path d="M40.2459 18.7448C37.8859 15.0648 33.3658 14.2548 30.4758 16.1048C28.0458 17.6648 26.9059 20.6848 27.7059 23.3248C25.6459 21.4948 22.4259 21.2548 19.9859 22.8148C17.0959 24.6648 15.9359 29.1148 18.2959 32.7948C21.8659 38.3648 34.5059 39.2748 37.0359 38.5848C37.0859 38.5748 37.1359 38.5648 37.1859 38.5448C37.2659 38.5148 37.3259 38.4848 37.3759 38.4548C37.3759 38.4548 37.3759 38.4548 37.3859 38.4448C37.3859 38.4448 37.3959 38.4448 37.4059 38.4448C37.4559 38.4148 37.5059 38.3648 37.5659 38.3048C37.6059 38.2648 37.6358 38.2248 37.6658 38.1848C39.3458 36.1648 43.8059 24.3048 40.2359 18.7348L40.2459 18.7448Z" fill="#FCFCFC"/>
</svg>
