<svg width="59" height="45" viewBox="0 0 59 45" fill="none" xmlns="http://www.w3.org/2000/svg">
<path d="M50.9484 8.26843L14.9384 0.228425C9.83843 -0.911575 4.72842 2.32844 3.59842 7.42844L0.228426 22.5084C-0.911574 27.6084 2.32843 32.7184 7.42843 33.8484L16.1384 35.7884C19.3884 40.5984 21.0784 44.4384 22.5184 44.7584C23.9184 45.0684 27.6084 41.9084 32.0984 39.3584L43.4384 41.8884C48.5384 43.0284 53.6484 39.7884 54.7784 34.6884L58.1484 19.6084C59.2884 14.5084 56.0484 9.39843 50.9484 8.26843Z" fill="url(#paint0_linear_5_4965)"/>
<path d="M17.89 18.3013L15.6459 28.2513C15.4952 28.9194 15.9146 29.5831 16.5827 29.7338L20.1725 30.5434C20.8405 30.6941 21.5042 30.2747 21.6549 29.6066L23.8991 19.6566C24.0497 18.9885 23.6303 18.3248 22.9623 18.1741L19.3725 17.3645C18.7044 17.2138 18.0407 17.6332 17.89 18.3013Z" fill="#FCFCFC"/>
<path d="M38.8988 23.0077L38.6888 22.9578C39.7388 23.1978 40.7988 22.5278 41.0288 21.4778C41.2688 20.4278 40.5988 19.3678 39.5488 19.1378L33.4188 17.7577C34.4488 16.7377 35.8988 15.0678 36.2488 13.5178C36.7988 11.0578 35.7688 9.38775 34.9188 9.03775C34.0788 8.68775 33.3288 9.00777 32.9088 9.68777C32.4888 10.3678 32.6188 11.8778 32.3288 12.3378C31.8888 13.0478 30.2988 13.7778 27.9388 15.7178C25.8288 17.4478 25.4988 19.9878 25.4988 19.9878L24.7288 23.3778L23.9588 26.7678L23.5988 28.3477C23.4488 28.9977 23.8688 29.6578 24.5188 29.8078L35.9088 32.3778C36.6688 32.5478 37.4388 32.0678 37.6088 31.3078C37.7788 30.5478 37.2988 29.7778 36.5388 29.6078L36.7388 29.6478C37.6688 29.8578 38.6088 29.2678 38.8188 28.3378C39.0288 27.4078 38.4388 26.4677 37.5088 26.2577L38.1288 26.3978C39.0588 26.6078 39.9988 26.0178 40.2088 25.0878C40.4188 24.1578 39.8288 23.2177 38.8988 23.0077Z" fill="#FCFCFC"/>
<defs>
<linearGradient id="paint0_linear_5_4965" x1="20.1126" y1="-3.31804" x2="38.257" y2="45.4446" gradientUnits="userSpaceOnUse">
<stop stop-color="#65BBFF"/>
<stop offset="1" stop-color="#315DA4"/>
</linearGradient>
</defs>
</svg>
