<svg width="111" height="87" viewBox="0 0 111 87" fill="none" xmlns="http://www.w3.org/2000/svg">
<path d="M98.8151 25.3651L34.1751 1.12513C25.0151 -2.30487 14.7151 2.37513 11.2851 11.5251L1.12513 38.6051C-2.30487 47.7651 2.37513 58.0651 11.5251 61.4951L27.1551 67.3551C31.9351 77.1151 34.0651 84.6651 36.6451 85.6251C39.1551 86.5651 46.8151 81.6551 55.8051 78.0951L76.1651 85.7351C85.3251 89.1651 95.6251 84.4851 99.0551 75.3351L109.215 48.2551C112.645 39.0951 107.965 28.7951 98.8151 25.3651Z" fill="url(#paint0_linear_5_5060)"/>
<path d="M77.3257 46.6537C80.0457 39.5237 76.4957 32.3237 70.8857 30.1837C66.1657 28.3837 60.7457 29.9237 57.8657 33.7937C58.2957 28.9837 55.2857 24.2237 50.5657 22.4237C44.9557 20.2837 37.5057 23.2837 34.7857 30.4137C30.6557 41.2237 42.5157 59.9237 46.1157 62.7737C46.1857 62.8337 46.2557 62.8837 46.3257 62.9337C46.4457 63.0137 46.5557 63.0737 46.6457 63.1137C46.6557 63.1137 46.6657 63.1137 46.6757 63.1137C46.6757 63.1137 46.6957 63.1237 46.7057 63.1237C46.7957 63.1637 46.9257 63.1837 47.0657 63.2037C47.1557 63.2137 47.2457 63.2237 47.3357 63.2237C51.9157 63.4937 73.2157 57.4437 77.3457 46.6437L77.3257 46.6537Z" fill="#FCFCFC"/>
<defs>
<linearGradient id="paint0_linear_5_5060" x1="16.1551" y1="4.41513" x2="94.1951" y2="82.4551" gradientUnits="userSpaceOnUse">
<stop stop-color="#D65F83"/>
<stop offset="1" stop-color="#DC3E6C"/>
</linearGradient>
</defs>
</svg>
