<svg width="73" height="57" viewBox="0 0 73 57" fill="none" xmlns="http://www.w3.org/2000/svg">
<path d="M64.569 14.609L21.229 0.569028C15.089 -1.42097 8.43903 1.97903 6.44903 8.10903L0.569027 26.259C-1.42097 32.399 1.97904 39.049 8.10904 41.039L18.589 44.439C22.029 50.729 23.669 55.639 25.399 56.199C27.079 56.749 31.989 53.279 37.799 50.659L51.449 55.079C57.589 57.069 64.239 53.669 66.229 47.539L72.109 29.389C74.099 23.249 70.699 16.599 64.569 14.609Z" fill="#FCFCFC"/>
<path d="M44.109 14.1591C36.389 9.70914 26.439 12.3891 21.989 20.1091C17.539 27.8291 20.219 37.7791 27.939 42.2291C35.659 46.6791 45.609 43.9991 50.059 36.2791C54.509 28.5591 51.829 18.6091 44.109 14.1591Z" fill="url(#paint0_linear_5_5082)"/>
<path d="M29.0996 24.4977C27.7796 23.6977 26.0396 24.3477 25.6196 25.8277C25.6196 25.8377 25.6196 25.8477 25.6196 25.8577C23.8596 32.1577 27.0996 38.5777 32.8596 40.1977C38.6196 41.8077 44.7296 38.0077 46.4896 31.6977C46.4896 31.6877 46.4896 31.6777 46.4896 31.6677C46.8996 30.1877 45.7396 28.7277 44.2096 28.7277C41.8096 28.7277 39.1396 28.3177 36.3896 27.5577C33.6396 26.7877 31.1496 25.7377 29.0996 24.5077V24.4977Z" fill="#1F1F40"/>
<path d="M32.8495 40.1968C34.9095 40.7768 36.9995 40.6468 38.9295 39.9768C38.9295 39.9768 37.4095 38.1468 33.7095 37.1168C29.6295 35.8568 27.7695 36.8568 27.7695 36.8568C29.0695 38.4268 30.7995 39.6268 32.8495 40.1968Z" fill="#FF2936"/>
<path d="M45.8597 26.9502C45.7997 26.9302 45.7497 26.9102 45.6997 26.8802L42.1997 24.5802C41.9897 24.4402 41.8798 24.1902 41.9398 23.9402C41.9898 23.6902 42.1897 23.5002 42.4297 23.4602C42.4297 23.4602 45.8897 22.8302 46.9297 22.6302C47.2697 22.5602 47.5897 22.7802 47.6497 23.1202C47.7097 23.4502 47.4998 23.7802 47.1598 23.8402C46.5798 23.9502 45.2298 24.2002 44.1598 24.4002L46.3697 25.8602C46.6497 26.0502 46.7297 26.4302 46.5497 26.7102C46.3997 26.9402 46.1097 27.0402 45.8497 26.9602L45.8597 26.9502Z" fill="#1F1F40"/>
<path d="M29.4497 21.62C29.1897 21.54 29.0097 21.3 29.0197 21.02C29.0197 20.68 29.2997 20.41 29.6497 20.41L32.2997 20.45C31.5197 19.69 30.5498 18.73 30.1298 18.3C29.8898 18.06 29.8898 17.67 30.1298 17.43C30.3698 17.19 30.7598 17.19 30.9998 17.43C31.7498 18.18 34.2597 20.65 34.2597 20.65C34.4397 20.83 34.4997 21.1 34.3997 21.33C34.2997 21.56 34.0697 21.71 33.8197 21.71L29.6298 21.65C29.5698 21.65 29.5097 21.65 29.4597 21.62H29.4497Z" fill="#1F1F40"/>
<defs>
<linearGradient id="paint0_linear_5_5082" x1="31.8346" y1="12.5318" x2="40.2365" y2="43.7791" gradientUnits="userSpaceOnUse">
<stop stop-color="#FFF900"/>
<stop offset="1" stop-color="#FF7C00"/>
</linearGradient>
</defs>
</svg>
