<svg width="50" height="41" viewBox="0 0 50 41" fill="none" xmlns="http://www.w3.org/2000/svg">
<path d="M44.5979 13.8379L16.7678 0.747884C12.8278 -1.10212 8.07787 0.597883 6.22787 4.54788L0.747886 16.2079C-1.10211 20.1479 0.597874 24.8979 4.54787 26.7479L11.2779 29.9179C13.0479 34.4279 13.7279 37.8479 14.8379 38.3779C15.9179 38.8879 19.4979 36.9779 23.6179 35.7279L32.3878 39.8479C36.3278 41.6979 41.0779 39.9979 42.9279 36.0479L48.4079 24.3879C50.2579 20.4479 48.5579 15.6979 44.6079 13.8479L44.5979 13.8379Z" fill="url(#paint0_linear_5_5076)"/>
<path d="M15.8717 15.9851L12.2335 23.6782C11.9903 24.1925 12.21 24.8065 12.7243 25.0497L15.4996 26.3622C16.0138 26.6054 16.6279 26.3856 16.8711 25.8714L20.5092 18.1783C20.7524 17.664 20.5327 17.05 20.0184 16.8068L17.2431 15.4943C16.7289 15.2512 16.1149 15.4709 15.8717 15.9851Z" fill="#FCFCFC"/>
<path d="M32.1172 23.6369L31.9472 23.5569C32.7572 23.9369 33.7372 23.5869 34.1272 22.7769C34.5072 21.9669 34.1572 20.9869 33.3472 20.5969L28.6072 18.3569C29.6272 17.7169 31.1172 16.6169 31.6772 15.4169C32.5772 13.5169 32.0372 11.9669 31.4172 11.5269C30.7972 11.0869 30.1272 11.2169 29.6572 11.6969C29.1872 12.1769 29.0272 13.4269 28.7072 13.7469C28.2172 14.2469 26.7972 14.5469 24.5172 15.6969C22.4872 16.7269 21.7572 18.7269 21.7572 18.7269L20.5172 21.3469L19.2772 23.9669L18.6972 25.1869C18.4572 25.6969 18.6772 26.2969 19.1772 26.5369L27.9772 30.6969C28.5672 30.9769 29.2772 30.7169 29.5572 30.1369C29.8372 29.5469 29.5772 28.8369 28.9972 28.5569L29.1472 28.6269C29.8672 28.9669 30.7372 28.6569 31.0772 27.9369C31.4172 27.2169 31.1072 26.3469 30.3872 26.0069L30.8672 26.2369C31.5872 26.5769 32.4572 26.2669 32.7972 25.5469C33.1372 24.8269 32.8272 23.9569 32.1072 23.6169L32.1172 23.6369Z" fill="#FCFCFC"/>
<defs>
<linearGradient id="paint0_linear_5_5076" x1="21.6326" y1="-1.18247" x2="27.5286" y2="41.8031" gradientUnits="userSpaceOnUse">
<stop stop-color="#65BBFF"/>
<stop offset="1" stop-color="#315DA4"/>
</linearGradient>
</defs>
</svg>
