<svg width="59" height="46" viewBox="0 0 59 46" fill="none" xmlns="http://www.w3.org/2000/svg">
<path d="M43.6182 0.208207L7.52818 7.8782C2.41818 8.9682 -0.881792 14.0382 0.208208 19.1482L3.4182 34.2682C4.5082 39.3782 9.57819 42.6782 14.6882 41.5882L23.4182 39.7382C28.3782 42.7582 31.5082 45.5482 32.9482 45.2382C34.3482 44.9382 36.3882 40.5282 39.4082 36.3382L50.7782 33.9182C55.8882 32.8282 59.1882 27.7582 58.0982 22.6482L54.8882 7.52821C53.7982 2.41821 48.7282 -0.881793 43.6182 0.208207Z" fill="url(#paint0_linear_5_5070)"/>
<path d="M22.2931 20.8465L18.692 21.6041C18.0218 21.7451 17.5928 22.4026 17.7338 23.0728L19.8336 33.0543C19.9746 33.7245 20.6321 34.1535 21.3023 34.0125L24.9035 33.2549C25.5736 33.114 26.0026 32.4564 25.8616 31.7862L23.7618 21.8047C23.6209 21.1345 22.9633 20.7055 22.2931 20.8465Z" fill="#FCFCFC"/>
<path d="M38.7988 18.6187L38.5788 18.6687C39.6288 18.4487 40.3188 17.3987 40.0888 16.3487C39.8688 15.2987 38.8188 14.6087 37.7688 14.8387L31.6188 16.1287C32.1288 14.7787 32.7588 12.6487 32.4288 11.0987C31.9088 8.62873 30.2688 7.54873 29.3588 7.57873C28.4488 7.60873 27.8988 8.20873 27.7988 9.00873C27.6988 9.80873 28.4488 11.1187 28.3788 11.6587C28.2688 12.4887 27.1388 13.8187 25.7888 16.5587C24.5888 19.0087 25.3488 21.4487 25.3488 21.4487L26.0688 24.8487L26.7888 28.2487L27.1188 29.8387C27.2588 30.4987 27.9088 30.9187 28.5588 30.7787L39.9888 28.3787C40.7488 28.2187 41.2488 27.4587 41.0888 26.6987C40.9288 25.9387 40.1688 25.4387 39.4088 25.5987L39.6088 25.5587C40.5488 25.3587 41.1488 24.4387 40.9488 23.4987C40.7488 22.5587 39.8288 21.9587 38.8888 22.1587L39.5188 22.0287C40.4588 21.8287 41.0588 20.9087 40.8588 19.9687C40.6588 19.0287 39.7388 18.4287 38.7988 18.6287V18.6187Z" fill="#FCFCFC"/>
<defs>
<linearGradient id="paint0_linear_5_5070" x1="10.7582" y1="2.49821" x2="47.5582" y2="39.2882" gradientUnits="userSpaceOnUse">
<stop stop-color="#65BBFF"/>
<stop offset="1" stop-color="#315DA4"/>
</linearGradient>
</defs>
</svg>
