<svg width="66" height="52" viewBox="0 0 66 52" fill="none" xmlns="http://www.w3.org/2000/svg">
<path d="M47.6771 0.397123L7.78712 11.5971C2.13712 13.1871 -1.19288 19.1071 0.39712 24.7571L5.08711 41.4671C6.67711 47.1171 12.5971 50.4471 18.2471 48.8571L27.8971 46.1471C33.6771 49.1771 37.3871 52.0671 38.9771 51.6271C40.5271 51.1871 42.4871 46.0971 45.5771 41.1871L58.1371 37.6571C63.7871 36.0671 67.1171 30.1471 65.5271 24.4971L60.8371 7.78708C59.2471 2.13708 53.3271 -1.19288 47.6771 0.397123Z" fill="#DC3E6C"/>
<path d="M44.8262 18.3288C43.6162 13.9088 39.3362 11.6888 35.8662 12.6388C32.9462 13.4388 30.8662 16.1088 30.8462 19.0088C29.3462 16.5288 26.1962 15.2887 23.2762 16.0987C19.7962 17.0487 17.2562 21.1488 18.4762 25.5588C20.3162 32.2488 32.6862 37.0988 35.4362 37.2088C35.4862 37.2088 35.5462 37.2088 35.5962 37.2088C35.6762 37.2088 35.7562 37.1988 35.8162 37.1788C35.8162 37.1788 35.8262 37.1788 35.8362 37.1788C35.8362 37.1788 35.8462 37.1788 35.8562 37.1788C35.9162 37.1588 35.9862 37.1288 36.0562 37.0888C36.1062 37.0688 36.1462 37.0388 36.1962 37.0088C38.5062 35.5088 46.6762 25.0288 44.8362 18.3388L44.8262 18.3288Z" fill="#FCFCFC"/>
</svg>
