<svg width="91" height="85" viewBox="0 0 91 85" fill="none" xmlns="http://www.w3.org/2000/svg">
<path d="M63.7411 16.707L18.9418 24.9838C12.5947 26.1555 8.36397 32.3105 9.53095 38.6489L12.9968 57.4101C14.1686 63.7573 20.3235 67.988 26.6619 66.821L37.4972 64.824C43.516 68.719 47.295 72.257 49.0831 71.9262C50.8224 71.6104 53.4894 66.2219 57.3525 61.1527L71.4612 58.5443C77.8084 57.3725 82.0391 51.2176 80.8721 44.8792L77.4062 26.1179C76.2345 19.7707 70.0795 15.5401 63.7411 16.707Z" fill="#FCFCFC"/>
<path d="M45.5327 26.0487C36.6252 25.8088 29.1495 32.9009 28.9095 41.8084C28.6696 50.7159 35.7618 58.1916 44.6693 58.4315C53.5767 58.6715 61.0524 51.5793 61.2924 42.6718C61.5323 33.7643 54.4402 26.2886 45.5327 26.0487Z" fill="url(#paint0_linear_5_5094)"/>
<path d="M37.252 42.2868C35.7103 42.2114 34.4894 43.6111 34.8243 45.1127C34.829 45.1215 34.8338 45.1303 34.8386 45.139C36.2887 51.5175 42.1935 55.6221 48.0304 54.3057C53.8625 52.9806 57.4279 46.7308 55.973 40.3436C55.9683 40.3348 55.9635 40.326 55.9587 40.3172C55.615 38.8204 53.9 38.0884 52.5544 38.8165C50.4435 39.9586 47.9001 40.8686 45.1198 41.5089C42.3348 42.1404 39.6451 42.4019 37.2568 42.2956L37.252 42.2868Z" fill="#1F1F40"/>
<path d="M48.0217 54.3081C50.1095 53.8379 51.8859 52.7289 53.2645 51.2212C53.2645 51.2212 51.0567 50.3351 47.3124 51.19C43.1244 52.0234 41.9644 53.7881 41.9644 53.7881C43.8549 54.5502 45.9475 54.7824 48.0217 54.3081Z" fill="#FF2936"/>
<path d="M53.1588 36.465C53.0965 36.476 53.043 36.4822 52.9847 36.4796L48.8119 36.1223C48.5606 36.0991 48.3449 35.9316 48.2787 35.6832C48.2037 35.4395 48.2892 35.1772 48.4812 35.0278C48.4812 35.0278 51.2245 32.8272 52.044 32.1563C52.3097 31.933 52.6959 31.9742 52.9104 32.2447C53.1202 32.5063 53.0926 32.8965 52.8221 33.1111C52.3644 33.4838 51.296 34.3462 50.4501 35.0313L53.0886 35.2636C53.4253 35.2975 53.6765 35.5936 53.6514 35.9256C53.6289 36.1992 53.4215 36.4252 53.1547 36.4786L53.1588 36.465Z" fill="#1F1F40"/>
<path d="M36.1886 39.5878C35.9219 39.6412 35.6494 39.5158 35.5249 39.2648C35.3631 38.9657 35.4809 38.595 35.7887 38.4285L38.1384 37.2025C37.0907 36.9053 35.7808 36.5226 35.2068 36.3443C34.8815 36.2474 34.6959 35.9044 34.7927 35.5791C34.8896 35.2538 35.2326 35.0682 35.5579 35.1651C36.5745 35.4678 39.9574 36.4457 39.9574 36.4457C40.2014 36.5184 40.3827 36.7273 40.4042 36.9771C40.4257 37.227 40.2948 37.4684 40.0749 37.5874L36.3612 39.5286C36.3085 39.5571 36.2557 39.5857 36.1974 39.5831L36.1886 39.5878Z" fill="#1F1F40"/>
<defs>
<linearGradient id="paint0_linear_5_5094" x1="33.9628" y1="30.4587" x2="56.2226" y2="53.9425" gradientUnits="userSpaceOnUse">
<stop stop-color="#FFF900"/>
<stop offset="1" stop-color="#FF7C00"/>
</linearGradient>
</defs>
</svg>
