<svg width="84" height="84" viewBox="0 0 84 84" fill="none" xmlns="http://www.w3.org/2000/svg">
<path d="M59.9468 5.07557C39.4269 -5.03531 14.37 3.48115 4.25916 24.0011C-5.85172 44.521 2.66476 69.5778 23.1847 79.6887C43.7046 89.7996 68.7613 81.2831 78.8722 60.7632C88.9831 40.2433 80.4667 15.1865 59.9468 5.07557Z" fill="url(#paint0_linear_5_5035)"/>
<path d="M23.2118 34.0608C19.7118 32.246 15.3434 34.1904 14.5267 38.0403C14.5267 38.0662 14.5268 38.0922 14.5138 38.1311C11.0398 54.5807 20.4248 70.4859 35.4485 73.6617C50.4852 76.8376 65.483 66.0656 68.957 49.616C68.957 49.5901 68.957 49.5641 68.9699 49.5252C69.7736 45.6624 66.5719 42.1236 62.6312 42.3699C56.4869 42.7458 49.5778 42.1754 42.4095 40.6588C35.2411 39.1422 28.695 36.8737 23.2247 34.0478L23.2118 34.0608Z" fill="#1F1F40"/>
<path d="M35.4371 73.6611C40.8037 74.7889 46.1443 74.1278 50.9794 72.0797C50.9794 72.0797 46.7795 67.6465 37.1353 65.6113C26.4799 63.0577 21.8652 65.9354 21.8652 65.9354C25.4689 69.7594 30.0836 72.5204 35.4501 73.6611H35.4371Z" fill="#FF2936"/>
<path d="M66.5732 37.5479C66.4306 37.509 66.288 37.4572 66.1584 37.3794L56.8123 32.0647C56.2549 31.7406 55.9438 31.1184 56.0216 30.4703C56.1123 29.8351 56.579 29.3036 57.2012 29.1481C57.2012 29.1481 65.9769 26.9704 68.6083 26.2704C69.4639 26.05 70.3194 26.5556 70.5398 27.3981C70.7601 28.2407 70.2546 29.1092 69.412 29.3296C67.9343 29.7184 64.5251 30.574 61.8159 31.261L67.7269 34.6183C68.4917 35.0461 68.7509 36.0183 68.3231 36.7831C67.9731 37.4053 67.2472 37.7035 66.5861 37.5479H66.5732Z" fill="#1F1F40"/>
<path d="M23.64 26.6448C22.979 26.4893 22.4604 25.906 22.4216 25.1801C22.3827 24.3116 23.0438 23.5597 23.9252 23.5208L30.7177 23.1708C28.6048 21.3431 25.9345 19.0487 24.7937 18.0247C24.1326 17.4413 24.0808 16.4432 24.6511 15.7951C25.2345 15.134 26.2326 15.0692 26.8807 15.6525C28.9288 17.4543 35.7731 23.3523 35.7731 23.3523C36.2657 23.7801 36.4472 24.4541 36.2398 25.0634C36.0324 25.6726 35.462 26.1004 34.8268 26.1393L24.0937 26.6837C23.9382 26.6837 23.7956 26.6837 23.64 26.6448Z" fill="#1F1F40"/>
<defs>
<linearGradient id="paint0_linear_5_5035" x1="28.2083" y1="3.04143" x2="54.9411" y2="81.7035" gradientUnits="userSpaceOnUse">
<stop stop-color="#FFF900"/>
<stop offset="1" stop-color="#FF7C00"/>
</linearGradient>
</defs>
</svg>
