<svg width="132" height="112" viewBox="0 0 132 112" fill="none" xmlns="http://www.w3.org/2000/svg">
<g filter="url(#filter0_d_5_5054)">
<path d="M82.8152 8.16436L23.3924 20.7923C14.9714 22.5788 9.55426 30.9351 11.3408 39.3489L16.6282 64.2375C18.4147 72.6585 26.771 78.0756 35.1848 76.2891L49.556 73.2348C57.725 78.2125 62.8828 82.794 65.2528 82.2898C67.5579 81.7999 70.9148 74.5315 75.8925 67.6304L94.6076 63.654C103.029 61.8675 108.446 53.5113 106.659 45.0974L101.372 20.2088C99.5853 11.7878 91.2291 6.37067 82.8152 8.15717V8.16436Z" fill="url(#paint0_linear_5_5054)"/>
</g>
<path d="M47.7 42.1676L41.7645 43.4163C40.6627 43.648 39.9574 44.7291 40.1892 45.8309L43.6475 62.27C43.8793 63.3718 44.9603 64.077 46.0621 63.8452L51.9977 62.5966C53.0994 62.3648 53.8047 61.2838 53.573 60.182L50.1147 43.7429C49.8829 42.6411 48.8018 41.9358 47.7 42.1676Z" fill="#FCFCFC"/>
<path d="M74.8706 38.4859L74.5176 38.5579C76.2537 38.1905 77.3775 36.4761 77.0101 34.7328C76.6427 32.9967 74.9282 31.8729 73.1849 32.2403L63.0566 34.3726C63.8922 32.1395 64.9296 28.6457 64.3893 26.0812C63.5321 22.0184 60.8379 20.2319 59.3324 20.2823C57.8268 20.3327 56.9263 21.3268 56.7679 22.6379C56.6094 23.949 57.834 26.1172 57.7259 27.0033C57.553 28.372 55.6801 30.5547 53.4614 35.0786C51.4876 39.1198 52.7338 43.1394 52.7338 43.1394L53.9152 48.7439L55.0966 54.3483L55.6441 56.956C55.8746 58.0365 56.9407 58.7353 58.0213 58.5048L76.8372 54.55C78.0978 54.2834 78.9118 53.0372 78.6453 51.7838C78.3788 50.5232 77.1325 49.7091 75.8791 49.9757L76.2033 49.9108C77.7448 49.5867 78.7389 48.0595 78.4148 46.5179C78.0906 44.9764 76.5634 43.9822 75.0219 44.3064L76.052 44.0903C77.5936 43.7661 78.5877 42.239 78.2635 40.6974C77.9393 39.1558 76.4122 38.1617 74.8706 38.4859Z" fill="#FCFCFC"/>
<defs>
<filter id="filter0_d_5_5054" x="0" y="0.816406" width="132" height="110.512" filterUnits="userSpaceOnUse" color-interpolation-filters="sRGB">
<feFlood flood-opacity="0" result="BackgroundImageFix"/>
<feColorMatrix in="SourceAlpha" type="matrix" values="0 0 0 0 0 0 0 0 0 0 0 0 0 0 0 0 0 0 127 0" result="hardAlpha"/>
<feOffset dx="7" dy="11"/>
<feGaussianBlur stdDeviation="9"/>
<feColorMatrix type="matrix" values="0 0 0 0 0.129412 0 0 0 0 0.180392 0 0 0 0 0.341176 0 0 0 0.2 0"/>
<feBlend mode="normal" in2="BackgroundImageFix" result="effect1_dropShadow_5_5054"/>
<feBlend mode="normal" in="SourceGraphic" in2="effect1_dropShadow_5_5054" result="shape"/>
</filter>
<linearGradient id="paint0_linear_5_5054" x1="28.7087" y1="11.9319" x2="89.3057" y2="72.5288" gradientUnits="userSpaceOnUse">
<stop stop-color="#65BBFF"/>
<stop offset="1" stop-color="#315DA4"/>
</linearGradient>
</defs>
</svg>
