<svg width="135" height="136" viewBox="0 0 135 136" fill="none" xmlns="http://www.w3.org/2000/svg">
<path d="M98.8609 87.2392C109.327 69.871 103.732 47.3067 86.364 36.8403C68.9958 26.374 46.4314 31.9691 35.9651 49.3373C25.4987 66.7054 31.0938 89.2698 48.462 99.7361C65.8302 110.202 88.3946 104.607 98.8609 87.2392Z" fill="url(#paint0_linear_5_5044)"/>
<path d="M83.6166 74.205C87.1515 78.7803 82.377 92.1519 67.7465 93.1441C53.1117 94.1261 50.1273 78.8301 52.4156 75.5613C55.5423 71.0902 63.0836 75.2099 68.445 74.7222C73.8021 74.2243 80.1312 69.7166 83.621 74.2152L83.6166 74.205Z" fill="#1F1F40"/>
<path d="M63.1915 80.5559C60.1785 82.9245 58.0427 86.3797 57.1713 90.0939C59.6737 92.1366 63.1255 93.4573 67.7461 93.1451C78.2365 92.438 83.6531 85.3699 84.5879 79.743C83.2959 78.9194 81.9117 78.2437 80.4627 77.7521C74.7103 75.8027 67.9718 76.8005 63.1915 80.5559Z" fill="#FF2936"/>
<path d="M58.1381 42.0632C56.1147 41.6873 54.0698 42.6536 52.4063 43.8636C48.8727 46.4448 48.2684 52.2533 48.2684 52.2533C48.2684 52.2533 46.5877 49.3039 45.49 48.0122C43.7536 45.9634 40.7978 45.041 38.2065 45.7147C35.605 46.3927 33.4923 48.6491 32.9687 51.2766C32.2135 55.1209 34.6548 58.859 37.4281 61.6133C39.5092 63.6815 46.8044 69.0121 49.3228 70.5074C54.5483 66.4758 60.7167 58.9513 62.2345 52.5325C62.7203 50.4856 62.9714 48.3119 62.3889 46.2936C61.8063 44.2754 60.2166 42.4274 58.154 42.0444L58.1381 42.0632Z" fill="#FF2936"/>
<path d="M58.1375 42.0648C57.38 41.9233 56.6316 41.9699 55.8908 42.1454C57.4021 43.2827 58.4445 45.1145 58.8762 47.0057C60.0965 52.3394 57.2814 58.117 52.7252 61.1394C48.3743 64.0251 42.2976 64.4972 37.9675 61.586C37.0017 60.9339 36.1528 60.1353 35.3559 59.2903C35.9849 60.1357 36.686 60.926 37.416 61.6438C39.4971 63.712 46.7923 69.0426 49.3107 70.5379C54.5362 66.5063 60.7046 58.9818 62.2223 52.563C62.7082 50.5161 62.9593 48.3424 62.3768 46.3241C61.7942 44.3059 60.2045 42.4579 58.1419 42.0749L58.1375 42.0648Z" fill="#BF101F"/>
<path d="M95.2179 42.6427C93.4333 41.6234 91.1825 41.8619 89.2077 42.4617C85.0165 43.7415 82.5405 49.0246 82.5405 49.0246C82.5405 49.0246 81.9142 45.6803 81.3067 44.1051C80.3365 41.6057 77.8578 39.757 75.1832 39.5419C72.5086 39.3268 69.7656 40.7624 68.4102 43.0763C66.432 46.4515 67.5109 50.7894 69.2234 54.3136C70.5067 56.9541 75.6439 64.3806 77.5372 66.6259C83.7939 64.5391 92.0862 59.4606 95.6301 53.8969C96.7623 52.1235 97.7131 50.1522 97.8268 48.0497C97.9405 45.9473 97.0505 43.6894 95.2179 42.6427Z" fill="#FF2936"/>
<path d="M95.2166 42.6402C94.5512 42.2668 93.8225 42.0528 93.0709 41.9808C94.1286 43.5418 94.51 45.6229 94.2975 47.5518C93.6996 52.9854 89.1326 57.5135 83.8355 58.8741C78.7742 60.169 72.8808 58.6166 69.7581 54.44C69.0551 53.5064 68.5256 52.4739 68.0525 51.4052C68.3662 52.4106 68.7754 53.3869 69.2177 54.3009C70.501 56.9414 75.6382 64.3679 77.5315 66.6132C83.7882 64.5264 92.0806 59.4479 95.6244 53.8842C96.7567 52.1108 97.7075 50.1395 97.8212 48.0371C97.9348 45.9346 97.0448 43.6767 95.2123 42.63L95.2166 42.6402Z" fill="#BF101F"/>
<defs>
<linearGradient id="paint0_linear_5_5044" x1="37.5617" y1="46.9388" x2="97.3133" y2="89.6439" gradientUnits="userSpaceOnUse">
<stop stop-color="#FFF900"/>
<stop offset="1" stop-color="#FF7C00"/>
</linearGradient>
</defs>
</svg>
